<?xml version="1.0" encoding="utf-8"?><svg xmlns="http://www.w3.org/2000/svg" xmlns:xlink="http://www.w3.org/1999/xlink" width="1920" height="929" preserveAspectRatio="xMidYMid" viewBox="0 0 1920 929" style="z-index:1;margin-right:-2px;display:block;background-repeat-y:initial;background-repeat-x:initial;background-color:rgb(241, 242, 243);animation-play-state:paused" ><g transform="translate(960,464.5) scale(-1,-1) translate(-960,-464.5)" style="transform:matrix(-1, 0, 0, -1, 1920, 929);animation-play-state:paused" ><g transform="translate(2477.097623761326,-712.2815430137146) scale(100)" opacity="0.79" style="transform:matrix(100, 0, 0, 100, 2477.1, -712.282);opacity:0.79;animation-play-state:paused" ><path d="M18.624 0 C18.624 4.4159999999999995 19.334518385241058 6.063631816887917 17.12651838524106 9.887999999999998 S13.136368183112081 13.920857120081385 9.312000000000001 16.128857120081385 S4.416 19.776 1.210930754996903e-15 19.776 S-5.487631816887915 18.336857120081383 -9.311999999999996 16.128857120081385 S-14.918518385241054 13.712368183112087 -17.126518385241056 9.888000000000007 S-18.624 4.416000000000002 -18.624 2.2807821987320303e-15 S-19.33451838524106 -6.063631816887913 -17.126518385241063 -9.887999999999995 S-13.136368183112088 -13.92085712008138 -9.312000000000008 -16.12885712008138 S-4.416000000000003 -19.776 -3.632792264990708e-15 -19.776 S5.487631816887905 -18.33685712008139 9.311999999999987 -16.128857120081392 S14.91851838524105 -13.712368183112089 17.126518385241052 -9.888000000000009 S18.624 -4.416000000000004 18.624 -4.5615643974640606e-15" fill="#0580ea" stroke-width="0" transform="matrix(1,0,0,1,0,0)" style="transform:matrix(1, 0, 0, 1, 0, 0);animation-play-state:paused" ></path></g>
<g transform="translate(2780.5171485135907,-947.6378516164575) scale(100)" opacity="0.79" style="transform:matrix(100, 0, 0, 100, 2780.52, -947.638);opacity:0.79;animation-play-state:paused" ><path d="M22.348799999999997 0 C22.348799999999997 5.299199999999999 23.20142206228927 7.276358180265502 20.551822062289272 11.865599999999999 S15.763641819734495 16.705028544097658 11.1744 19.354628544097658 S5.299200000000001 23.7312 1.4531169059962834e-15 23.7312 S-6.585158180265497 22.00422854409766 -11.174399999999993 19.35462854409766 S-17.90222206228927 16.454841819734504 -20.55182206228927 11.865600000000008 S-22.348799999999997 5.299200000000002 -22.348799999999997 2.7369386384784365e-15 S-23.201422062289275 -7.276358180265496 -20.551822062289276 -11.865599999999993 S-15.763641819734506 -16.705028544097654 -11.17440000000001 -19.354628544097658 S-5.2992000000000035 -23.7312 -4.35935071798885e-15 -23.7312 S6.585158180265486 -22.004228544097664 11.174399999999984 -19.354628544097668 S17.902222062289262 -16.454841819734504 20.551822062289265 -11.865600000000011 S22.348799999999997 -5.299200000000004 22.348799999999997 -5.473877276956873e-15" fill="#0580ea" stroke-width="0" transform="matrix(1,0,0,1,0,0)" style="transform:matrix(1, 0, 0, 1, 0, 0);animation-play-state:paused" ></path></g>
<g transform="translate(3508.724007919027,-1512.4929922630406) scale(100)" opacity="0.79" style="transform:matrix(100, 0, 0, 100, 3508.72, -1512.49);opacity:0.79;animation-play-state:paused" ><path d="M31.28832 0 C31.28832 7.41888 32.48199088720498 10.1869014523717 28.772550887204982 16.611839999999997 S22.0690985476283 23.387039961736726 15.644160000000003 27.096479961736726 S7.4188800000000015 33.22368 2.034363668394797e-15 33.22368 S-9.219221452371695 30.805919961736727 -15.644159999999992 27.09647996173673 S-25.06311088720497 23.036778547628305 -28.772550887204975 16.61184000000001 S-31.28832 7.418880000000003 -31.28832 3.831714093869811e-15 S-32.48199088720499 -10.186901452371693 -28.772550887204986 -16.61183999999999 S-22.069098547628307 -23.38703996173672 -15.644160000000014 -27.096479961736723 S-7.418880000000006 -33.22368 -6.10309100518439e-15 -33.22368 S9.219221452371679 -30.805919961736734 15.644159999999978 -27.09647996173674 S25.063110887204967 -23.03677854762831 28.77255088720497 -16.611840000000015 S31.288319999999995 -7.418880000000008 31.28832 -7.663428187739622e-15" fill="#0580ea" stroke-width="0" transform="matrix(1,0,0,1,0,0)" style="transform:matrix(1, 0, 0, 1, 0, 0);animation-play-state:paused" ></path></g></g></svg>